# xmcd
#
# Track frame offsets:
#	150
#	935
#	22007
#	43831
#	65259
#	65822
#	88987
#	92549
#	107089
#	109290
#	124719
#	125454
#	140922
#	155517
#	156527
#	156851
#	180605
#	183722
#	207625
#	208159
#	226082
#	227395
#	240999
#	246342
#	264093
#	280675
#	282942
#	287245
#	314603
#
# Disc length: 4216 seconds
# Revision: 0
# Processed by: cddbd v1.5.2PL0 Copyright (c) Steve Scherf et al.
# Submitted via: dBpowerAMP V12.0
#
DISCID=ae10761d
DTITLE=Kirsten Thien - Solo Live from Meisenfrei Blues Club
DYEAR=2013
DGENRE=Blues Female
TTITLE0=Good Evening
TTITLE1=Hold Onto Me
TTITLE2=A Woman Knows
TTITLE3=Thank You (for Saying Goodbye)
TTITLE4=Intro to You've Got Me
TTITLE5=You've Got Me
TTITLE6=Intro to Wild Women
TTITLE7=Wild Women Don't Have the Blues
TTITLE8=Intro To Sweet Lost and Found
TTITLE9=The Sweet Lost and Found
TTITLE10=Intro to Ain't That the Truth
TTITLE11=Ain't That the Truth
TTITLE12=It Takes A Lot to Laugh, It Takes A Train to Cry
TTITLE13=Bremen Came Out
TTITLE14=Intro to Please Drive
TTITLE15=Please Drive
TTITLE16=Intro to Leaving Las Vegas
TTITLE17=Leaving Las Vegas
TTITLE18=Intro to Nobody's Ever Loved Me Like You Do
TTITLE19=Nobody's Ever Loved Me Like You Do
TTITLE20=Intro to Women Be Wise
TTITLE21=Women Be Wise
TTITLE22=Intro to Fooled Around and Fell In Love
TTITLE23=Fooled Around and Fell In Love
TTITLE24=I'd Rather Be Blind
TTITLE25=Thank You So Much
TTITLE26=Intro to Ain't No Sunshine - The Thrill Is Gone
TTITLE27=Ain't No Sunshine - The Thrill Is Gone Medley
TTITLE28=Thank You and Goodnight
EXTD=
EXTT0=
EXTT1=
EXTT2=
EXTT3=
EXTT4=
EXTT5=
EXTT6=
EXTT7=
EXTT8=
EXTT9=
EXTT10=
EXTT11=
EXTT12=
EXTT13=
EXTT14=
EXTT15=
EXTT16=
EXTT17=
EXTT18=
EXTT19=
EXTT20=
EXTT21=
EXTT22=
EXTT23=
EXTT24=
EXTT25=
EXTT26=
EXTT27=
EXTT28=
PLAYORDER=
